<svg width="69" height="69" viewBox="0 0 69 69" fill="none" xmlns="http://www.w3.org/2000/svg">
<g filter="url(#filter0_d_1517_2)">
<g filter="url(#filter1_d_1517_2)">
<circle cx="34.5906" cy="30.3047" r="24" fill="white"/>
</g>
<g filter="url(#filter2_i_1517_2)">
<path d="M34.2111 30.7566H14.5953" stroke="black"/>
<path d="M23.9684 23.6643L34.2111 30.7567L41.0718 33.4278" stroke="black"/>
<path d="M30.9258 25.138L34.1146 30.7566L46 14.085" stroke="black"/>
<path d="M36.2403 16.7561L34.1145 30.7566L41.9415 27.717" stroke="black"/>
<path d="M36.0471 26.3354L34.1145 30.7567L42.0381 46.8757" stroke="black"/>
<path d="M29.2831 33.3356L34.1146 30.7566L32.5685 37.3884" stroke="black"/>
<path d="M27.5437 39.3227L34.1145 30.7566L34.9842 45.4019" stroke="black"/>
<path d="M14.2089 31.7172C14.729 31.7172 15.192 31.3095 15.192 30.7567C15.192 30.2039 14.729 29.7961 14.2089 29.7961C13.6887 29.7961 13.2257 30.2039 13.2257 30.7567C13.2257 31.3095 13.6887 31.7172 14.2089 31.7172Z" stroke="black"/>
<path d="M23.6786 24.3483C24.1987 24.3483 24.6617 23.9406 24.6617 23.3878C24.6617 22.835 24.1987 22.4272 23.6786 22.4272C23.1585 22.4272 22.6954 22.835 22.6954 23.3878C22.6954 23.9406 23.1585 24.3483 23.6786 24.3483Z" stroke="black"/>
<path d="M30.4565 25.4709C30.9767 25.4709 31.4397 25.0631 31.4397 24.5103C31.4397 23.9575 30.9767 23.5498 30.4565 23.5498C29.9364 23.5498 29.4734 23.9575 29.4734 24.5103C29.4734 25.0631 29.9364 25.4709 30.4565 25.4709Z" stroke="black"/>
<path d="M36.2403 26.9274C36.7605 26.9274 37.2235 26.5197 37.2235 25.9669C37.2235 25.4141 36.7605 25.0063 36.2403 25.0063C35.7202 25.0063 35.2572 25.4141 35.2572 25.9669C35.2572 26.5197 35.7202 26.9274 36.2403 26.9274Z" stroke="black"/>
<path d="M42.6041 28.5839C43.1242 28.5839 43.5873 28.1762 43.5873 27.6234C43.5873 27.0706 43.1242 26.6628 42.6041 26.6628C42.084 26.6628 41.621 27.0706 41.621 27.6234C41.621 28.1762 42.084 28.5839 42.6041 28.5839Z" stroke="black"/>
<path d="M41.4585 34.4804C41.9786 34.4804 42.4416 34.0727 42.4416 33.5199C42.4416 32.9671 41.9786 32.5593 41.4585 32.5593C40.9384 32.5593 40.4753 32.9671 40.4753 33.5199C40.4753 34.0727 40.9384 34.4804 41.4585 34.4804Z" stroke="black"/>
<path d="M32.5684 38.7175C33.0885 38.7175 33.5515 38.3097 33.5515 37.7569C33.5515 37.2041 33.0885 36.7964 32.5684 36.7964C32.0482 36.7964 31.5852 37.2041 31.5852 37.7569C31.5852 38.3097 32.0482 38.7175 32.5684 38.7175Z" stroke="black"/>
<path d="M34.8876 46.6389C35.4077 46.6389 35.8707 46.2311 35.8707 45.6783C35.8707 45.1255 35.4077 44.7178 34.8876 44.7178C34.3674 44.7178 33.9044 45.1255 33.9044 45.6783C33.9044 46.2311 34.3674 46.6389 34.8876 46.6389Z" stroke="black"/>
<path d="M42.2314 48.1125C42.7516 48.1125 43.2146 47.7047 43.2146 47.1519C43.2146 46.5992 42.7516 46.1914 42.2314 46.1914C41.7113 46.1914 41.2483 46.5992 41.2483 47.1519C41.2483 47.7047 41.7113 48.1125 42.2314 48.1125Z" stroke="black"/>
<path d="M27.3505 40.5598C27.8706 40.5598 28.3336 40.152 28.3336 39.5992C28.3336 39.0464 27.8706 38.6387 27.3505 38.6387C26.8303 38.6387 26.3673 39.0464 26.3673 39.5992C26.3673 40.152 26.8303 40.5598 27.3505 40.5598Z" stroke="black"/>
<path d="M28.8965 34.4804C29.4166 34.4804 29.8796 34.0727 29.8796 33.5199C29.8796 32.9671 29.4166 32.5593 28.8965 32.5593C28.3763 32.5593 27.9133 32.9671 27.9133 33.5199C27.9133 34.0727 28.3763 34.4804 28.8965 34.4804Z" stroke="black"/>
<path d="M36.2403 17.3483C36.7605 17.3483 37.2235 16.9406 37.2235 16.3878C37.2235 15.835 36.7605 15.4272 36.2403 15.4272C35.7202 15.4272 35.2572 15.835 35.2572 16.3878C35.2572 16.9406 35.7202 17.3483 36.2403 17.3483Z" stroke="black"/>
<path d="M46.4694 14.4179C46.9895 14.4179 47.4525 14.0102 47.4525 13.4574C47.4525 12.9046 46.9895 12.4968 46.4694 12.4968C45.9492 12.4968 45.4862 12.9046 45.4862 13.4574C45.4862 14.0102 45.9492 14.4179 46.4694 14.4179Z" stroke="black"/>
</g>
</g>
<defs>
<filter id="filter0_d_1517_2" x="6.59058" y="6.30469" width="56" height="56" filterUnits="userSpaceOnUse" color-interpolation-filters="sRGB">
<feFlood flood-opacity="0" result="BackgroundImageFix"/>
<feColorMatrix in="SourceAlpha" type="matrix" values="0 0 0 0 0 0 0 0 0 0 0 0 0 0 0 0 0 0 127 0" result="hardAlpha"/>
<feOffset dy="4"/>
<feGaussianBlur stdDeviation="2"/>
<feComposite in2="hardAlpha" operator="out"/>
<feColorMatrix type="matrix" values="0 0 0 0 0 0 0 0 0 0 0 0 0 0 0 0 0 0 0.25 0"/>
<feBlend mode="normal" in2="BackgroundImageFix" result="effect1_dropShadow_1517_2"/>
<feBlend mode="normal" in="SourceGraphic" in2="effect1_dropShadow_1517_2" result="shape"/>
</filter>
<filter id="filter1_d_1517_2" x="0.590576" y="0.304688" width="68" height="68" filterUnits="userSpaceOnUse" color-interpolation-filters="sRGB">
<feFlood flood-opacity="0" result="BackgroundImageFix"/>
<feColorMatrix in="SourceAlpha" type="matrix" values="0 0 0 0 0 0 0 0 0 0 0 0 0 0 0 0 0 0 127 0" result="hardAlpha"/>
<feOffset dy="4"/>
<feGaussianBlur stdDeviation="5"/>
<feComposite in2="hardAlpha" operator="out"/>
<feColorMatrix type="matrix" values="0 0 0 0 0.129412 0 0 0 0 0.423529 0 0 0 0 0.403922 0 0 0 0.3 0"/>
<feBlend mode="normal" in2="BackgroundImageFix" result="effect1_dropShadow_1517_2"/>
<feBlend mode="normal" in="SourceGraphic" in2="effect1_dropShadow_1517_2" result="shape"/>
</filter>
<filter id="filter2_i_1517_2" x="12.7257" y="11.9968" width="35.2268" height="37.6157" filterUnits="userSpaceOnUse" color-interpolation-filters="sRGB">
<feFlood flood-opacity="0" result="BackgroundImageFix"/>
<feBlend mode="normal" in="SourceGraphic" in2="BackgroundImageFix" result="shape"/>
<feColorMatrix in="SourceAlpha" type="matrix" values="0 0 0 0 0 0 0 0 0 0 0 0 0 0 0 0 0 0 127 0" result="hardAlpha"/>
<feOffset dy="1"/>
<feGaussianBlur stdDeviation="2.5"/>
<feComposite in2="hardAlpha" operator="arithmetic" k2="-1" k3="1"/>
<feColorMatrix type="matrix" values="0 0 0 0 0 0 0 0 0 0 0 0 0 0 0 0 0 0 1 0"/>
<feBlend mode="normal" in2="shape" result="effect1_innerShadow_1517_2"/>
</filter>
</defs>
</svg>
