<?xml version="1.0" standalone="no"?>
<!DOCTYPE svg PUBLIC "-//W3C//DTD SVG 20010904//EN"
 "http://www.w3.org/TR/2001/REC-SVG-20010904/DTD/svg10.dtd">
<svg version="1.0" xmlns="http://www.w3.org/2000/svg"
 width="740.000000pt" height="740.000000pt" viewBox="0 0 740.000000 740.000000"
 preserveAspectRatio="xMidYMid meet">
<metadata>
Created by potrace 1.14, written by Peter Selinger 2001-2017
</metadata>
<g transform="translate(0.000000,740.000000) scale(0.100000,-0.100000)"
fill="#000000" stroke="none">
<path d="M3520 7390 c1939 -3 3515 -6 3504 -8 -76 -8 -170 -84 -204 -165 -19
-44 -22 -64 -18 -139 l6 -88 -122 -154 c-66 -84 -443 -561 -836 -1059 l-714
-906 -19 49 c-20 54 -86 129 -136 154 -66 34 -170 39 -241 11 -13 -4 0 95 72
547 48 304 89 571 92 593 17 149 15 143 65 166 99 44 152 124 159 239 4 67 1
85 -20 132 -33 70 -87 122 -155 148 -144 54 -297 -9 -361 -148 -21 -47 -24
-65 -20 -132 5 -88 32 -145 93 -199 l37 -32 -15 -87 c-8 -48 -93 -576 -188
-1174 -130 -813 -176 -1085 -185 -1075 -6 6 -106 164 -223 350 l-212 339 28
56 c93 188 -45 405 -257 405 -135 0 -237 -79 -276 -211 -20 -70 -14 -127 22
-199 42 -87 125 -144 231 -158 l52 -7 76 -120 c42 -66 74 -122 73 -124 -2 -1
-237 200 -523 448 l-520 450 3 63 c8 134 -58 247 -170 295 -72 31 -185 25
-249 -12 -94 -56 -142 -139 -143 -248 -1 -187 183 -331 354 -277 l46 14 732
-635 c403 -349 732 -635 730 -637 -2 -1 -735 -5 -1630 -9 l-1627 -7 -25 38
c-93 147 -290 181 -425 74 -85 -68 -125 -215 -86 -318 59 -154 244 -230 388
-159 51 24 111 78 134 121 9 16 103 17 1593 16 871 -1 1585 -3 1587 -4 3 -3
-33 -29 -298 -208 l-146 -99 -36 15 c-56 23 -152 19 -212 -9 -57 -26 -126 -97
-151 -153 -9 -22 -17 -66 -17 -103 -2 -169 139 -301 307 -288 79 7 132 34 190
99 54 60 80 133 74 212 l-3 52 180 123 c209 142 221 150 208 129 -4 -8 -210
-327 -458 -710 -428 -661 -451 -694 -473 -686 -13 5 -52 9 -86 9 -196 0 -336
-199 -267 -380 24 -63 85 -131 146 -162 55 -29 150 -35 212 -14 131 44 222
194 193 320 l-11 48 392 607 c216 333 395 609 399 614 3 4 -22 -147 -57 -335
-34 -189 -63 -348 -63 -354 0 -6 -18 -19 -41 -29 -53 -24 -123 -103 -143 -162
-37 -108 -12 -209 74 -295 45 -45 69 -60 115 -73 232 -68 442 171 342 387 -25
54 -54 91 -95 120 l-23 16 64 348 64 349 7 -75 c3 -41 31 -574 61 -1185 l55
-1110 -27 -20 c-130 -92 -173 -238 -110 -368 52 -104 144 -161 262 -161 78 0
135 22 193 78 71 66 107 184 83 273 -17 61 -70 134 -123 168 -45 29 -47 32
-48 80 0 28 -27 568 -59 1200 -32 633 -58 1151 -57 1152 0 0 266 -553 589
-1229 l588 -1231 -25 -36 c-118 -171 -46 -388 150 -447 104 -31 192 -7 274 74
86 86 111 187 74 295 -30 88 -129 173 -224 191 l-35 7 -640 1340 c-352 737
-652 1367 -667 1399 l-27 60 67 -33 c37 -18 257 -125 489 -238 l422 -204 1
-46 c0 -68 27 -133 76 -188 113 -126 300 -127 417 -2 59 63 80 122 75 208 -5
82 -28 134 -86 190 -84 82 -206 103 -316 55 l-46 -21 -545 266 c-300 146 -545
269 -545 272 0 5 1087 414 1228 462 30 10 35 9 72 -25 57 -52 104 -69 185 -69
84 0 129 18 192 75 61 57 85 108 91 193 6 95 -20 157 -95 225 -150 138 -364
88 -454 -105 l-27 -60 -524 -194 c-287 -107 -545 -203 -572 -213 -33 -13 -46
-15 -39 -6 18 24 2136 2712 2190 2780 52 65 54 66 85 57 116 -33 261 32 321
145 29 55 32 203 4 253 -42 77 -134 149 -199 155 -13 1 42 5 122 8 80 3 -1522
6 -3560 5 l-3705 0 3525 -5z m3607 -256 c15 -23 15 -29 2 -52 -21 -37 -52 -45
-83 -21 -14 11 -26 30 -26 41 0 57 76 79 107 32z m-2243 -445 c30 -23 33 -45
10 -77 -30 -44 -104 -16 -104 39 0 16 44 59 60 59 4 0 19 -9 34 -21z m-2331
-1271 l21 -28 -21 -27 c-11 -16 -30 -29 -42 -31 -54 -8 -83 71 -38 103 30 21
56 16 80 -17z m1138 -449 c26 -26 21 -57 -13 -82 l-28 -21 -27 21 c-35 25 -40
56 -14 82 27 27 55 27 82 0z m1197 -111 c7 -7 12 -27 12 -45 0 -42 -35 -63
-75 -45 -19 9 -25 19 -25 45 0 40 15 57 50 57 14 0 31 -5 38 -12z m-28 -337
c0 -5 -7 -14 -15 -21 -16 -14 -18 -10 -9 14 6 17 24 22 24 7z m1352 -137 c18
-39 -4 -74 -46 -74 -40 0 -59 19 -54 57 6 52 79 64 100 17z m-5610 -611 c24
-21 23 -58 -3 -84 -23 -23 -54 -19 -81 13 -23 26 -22 30 3 62 23 30 54 33 81
9z m2864 -698 c32 -49 -23 -104 -75 -75 -24 12 -29 68 -9 88 21 21 66 14 84
-13z m2502 -101 c24 -17 30 -62 10 -82 -20 -20 -76 -15 -88 7 -15 29 -12 49
10 71 24 24 38 25 68 4z m-1820 -886 c21 -21 14 -66 -12 -83 -48 -32 -104 22
-76 74 12 24 68 29 88 9z m-1030 -340 c20 -20 15 -76 -9 -88 -52 -29 -107 26
-75 75 18 27 63 34 84 13z m1539 -1346 c12 -8 18 -31 15 -65 -3 -27 -50 -41
-78 -22 -26 17 -33 62 -12 83 13 13 57 16 75 4z m1385 -17 c14 -31 -1 -70 -30
-77 -32 -9 -67 14 -70 45 -5 38 14 57 54 57 27 0 37 -5 46 -25z"/>
</g>
</svg>
