<svg width="12" height="9" viewBox="0 0 12 9" fill="none" xmlns="http://www.w3.org/2000/svg">
<g id="Vector">
<path fill-rule="evenodd" clip-rule="evenodd" d="M10.0483 0.343753C10.2629 0.123431 10.5539 -0.000220061 10.8572 2.9401e-07C11.1605 0.000220649 11.4513 0.124295 11.6656 0.344928C11.8799 0.565561 12.0002 0.864681 12 1.17648C11.9998 1.48828 11.8791 1.78723 11.6645 2.00755L5.20319 8.64981L5.19862 8.65451C5.09271 8.764 4.9668 8.85089 4.82812 8.91018C4.68944 8.96948 4.54072 9 4.39053 9C4.24033 9 4.09161 8.96948 3.95293 8.91018C3.81425 8.85089 3.68834 8.764 3.58244 8.65451L3.57787 8.64981L0.348939 5.33044C0.239773 5.22205 0.152698 5.0924 0.0927949 4.94904C0.0328923 4.80569 0.00136195 4.65151 4.31555e-05 4.49549C-0.00127564 4.33947 0.0276436 4.18475 0.0851138 4.04035C0.142584 3.89595 0.227454 3.76476 0.334772 3.65443C0.442089 3.54411 0.569706 3.45686 0.710174 3.39778C0.850643 3.3387 1.00115 3.30897 1.15291 3.31033C1.30468 3.31168 1.45466 3.3441 1.59411 3.40568C1.73356 3.46726 1.85968 3.55677 1.96512 3.669L4.39053 6.16117L10.0483 0.344928V0.343753Z" fill="white"/>
<path fill-rule="evenodd" clip-rule="evenodd" d="M10.0483 0.343753C10.2629 0.123431 10.5539 -0.000220061 10.8572 2.9401e-07C11.1605 0.000220649 11.4513 0.124295 11.6656 0.344928C11.8799 0.565561 12.0002 0.864681 12 1.17648C11.9998 1.48828 11.8791 1.78723 11.6645 2.00755L5.20319 8.64981L5.19862 8.65451C5.09271 8.764 4.9668 8.85089 4.82812 8.91018C4.68944 8.96948 4.54072 9 4.39053 9C4.24033 9 4.09161 8.96948 3.95293 8.91018C3.81425 8.85089 3.68834 8.764 3.58244 8.65451L3.57787 8.64981L0.348939 5.33044C0.239773 5.22205 0.152698 5.0924 0.0927949 4.94904C0.0328923 4.80569 0.00136195 4.65151 4.31555e-05 4.49549C-0.00127564 4.33947 0.0276436 4.18475 0.0851138 4.04035C0.142584 3.89595 0.227454 3.76476 0.334772 3.65443C0.442089 3.54411 0.569706 3.45686 0.710174 3.39778C0.850643 3.3387 1.00115 3.30897 1.15291 3.31033C1.30468 3.31168 1.45466 3.3441 1.59411 3.40568C1.73356 3.46726 1.85968 3.55677 1.96512 3.669L4.39053 6.16117L10.0483 0.344928V0.343753Z" fill="#E3AE56"/>
</g>
</svg>
