<svg width="25" height="26" viewBox="0 0 25 26" fill="none" xmlns="http://www.w3.org/2000/svg">
<g id="button_telegram">
<g id="Vector">
<path d="M12.5 25.2063C19.4035 25.2063 25 19.6098 25 12.7063C25 5.80276 19.4035 0.206299 12.5 0.206299C5.59646 0.206299 0 5.80276 0 12.7063C0 19.6098 5.59646 25.2063 12.5 25.2063Z" fill="url(#paint0_linear_620_35)"/>
<path d="M12.5 25.2063C19.4035 25.2063 25 19.6098 25 12.7063C25 5.80276 19.4035 0.206299 12.5 0.206299C5.59646 0.206299 0 5.80276 0 12.7063C0 19.6098 5.59646 25.2063 12.5 25.2063Z" fill="#1499D2"/>
</g>
<path id="Vector_2" d="M4.65531 13.3178C6.11655 12.5129 7.74769 11.8411 9.27175 11.1659C11.8937 10.06 14.5261 8.9732 17.1851 7.96143C17.7024 7.78903 18.632 7.62044 18.7231 8.3871C18.6732 9.47231 18.4679 10.5512 18.3271 11.63C17.9696 14.0025 17.5565 16.3669 17.1536 18.7316C17.0148 19.5192 16.0281 19.927 15.3968 19.4229C13.8795 18.398 12.3505 17.3831 10.8526 16.3345C10.3619 15.8359 10.8169 15.1199 11.2551 14.7639C12.5048 13.5323 13.8301 12.486 15.0145 11.1908C15.334 10.4192 14.39 11.0694 14.0787 11.2687C12.3678 12.4476 10.6989 13.6986 8.89514 14.7347C7.97378 15.2419 6.89993 14.8085 5.97899 14.5254C5.15325 14.1836 3.94333 13.8391 4.65531 13.3178Z" fill="white"/>
</g>
<defs>
<linearGradient id="paint0_linear_620_35" x1="9.37646" y1="1.2488" x2="3.12646" y2="15.8313" gradientUnits="userSpaceOnUse">
<stop stop-color="#37AEE2"/>
<stop offset="1" stop-color="#1E96C8"/>
</linearGradient>
</defs>
</svg>
