<svg width="25" height="26" viewBox="0 0 25 26" fill="none" xmlns="http://www.w3.org/2000/svg">
<g id="button_wsap">
<path id="Vector" d="M24.9995 11.8411C24.9687 15.0929 24.1327 17.637 22.3939 19.8476C20.527 22.2224 18.0958 23.7303 15.1209 24.3407C12.8231 24.8074 10.5868 24.6023 8.39155 23.8072C7.90428 23.6277 7.42728 23.4174 6.97079 23.1661C6.83231 23.0892 6.71434 23.0789 6.56046 23.1302C4.48319 23.8021 2.40078 24.4689 0.318374 25.1306C0.226051 25.1613 0.102953 25.2485 0.0311456 25.1818C-0.0509197 25.0998 0.0516619 24.9767 0.0824364 24.8792C0.497892 23.6431 0.913347 22.4019 1.33393 21.1658C1.59039 20.4118 1.83658 19.663 2.10329 18.9141C2.1751 18.7192 2.14946 18.5705 2.04175 18.3909C1.51345 17.4882 1.12364 16.524 0.846669 15.5135C0.328632 13.6158 0.272212 11.6975 0.67741 9.77921C1.11851 7.68655 2.04174 5.81956 3.4625 4.20903C5.18074 2.25998 7.29905 0.97258 9.81743 0.351961C11.4228 -0.0429778 13.0436 -0.104527 14.6747 0.162185C16.8084 0.510963 18.7318 1.35726 20.409 2.7216C22.1529 4.14235 23.4249 5.90676 24.225 8.02507C24.6661 9.16885 25.0149 11.041 24.9995 11.8411Z" fill="#51C85D"/>
<path id="Vector_2" d="M6.56558 9.42535C6.59122 8.20463 7.02207 7.29679 7.83759 6.57359C8.09917 6.33765 8.42231 6.23507 8.78647 6.28636C8.94034 6.30687 9.09421 6.32226 9.24809 6.312C9.53532 6.29661 9.73022 6.4351 9.82767 6.68643C10.1713 7.57889 10.5047 8.47135 10.8381 9.36893C10.9509 9.67668 10.756 9.91775 10.5919 10.1383C10.4021 10.3999 10.1713 10.6307 9.94564 10.8615C9.71483 11.0974 9.68406 11.2308 9.84306 11.518C10.7714 13.2055 12.0742 14.5031 13.8437 15.3033C13.9053 15.3289 13.9668 15.3648 14.0284 15.3956C14.2643 15.5033 14.4746 15.4777 14.6541 15.2725C14.9824 14.8878 15.3414 14.5339 15.6441 14.1287C15.8441 13.862 15.9826 13.8158 16.2852 13.9492C17.1879 14.339 18.0342 14.8314 18.8959 15.3084C19.0549 15.3956 19.1113 15.529 19.1062 15.7136C19.06 17.2267 18.1932 18.0166 16.6699 18.3653C15.9313 18.5346 15.2491 18.35 14.5721 18.1038C13.1513 17.5908 11.7819 16.9856 10.6329 15.9701C9.71996 15.1597 8.9147 14.2569 8.23253 13.2465C7.70936 12.4669 7.16568 11.7027 6.86307 10.7948C6.68868 10.3127 6.56045 9.82029 6.56558 9.42535Z" fill="white"/>
</g>
</svg>
