<svg width="12" height="10" viewBox="0 0 12 10" fill="none" xmlns="http://www.w3.org/2000/svg">
<g id="Vector">
<path fill-rule="evenodd" clip-rule="evenodd" d="M10.0095 0.517825C10.2133 0.297504 10.4895 0.173852 10.7774 0.174073C11.0653 0.174293 11.3414 0.298367 11.5448 0.519C11.7483 0.739633 11.8625 1.03875 11.8623 1.35055C11.862 1.66236 11.7475 1.9613 11.5437 2.18162L5.4102 8.82388L5.40586 8.82858C5.30534 8.93807 5.18581 9.02497 5.05416 9.08426C4.92252 9.14355 4.78134 9.17407 4.63877 9.17407C4.49619 9.17407 4.35501 9.14355 4.22337 9.08426C4.09172 9.02497 3.9722 8.93807 3.87167 8.82858L3.86733 8.82388L0.802187 5.50451C0.698558 5.39612 0.615899 5.26647 0.559035 5.12312C0.502171 4.97976 0.47224 4.82558 0.470988 4.66956C0.469736 4.51355 0.497189 4.35882 0.551744 4.21442C0.606299 4.07002 0.686864 3.93883 0.788738 3.8285C0.890612 3.71818 1.01175 3.63093 1.1451 3.57185C1.27844 3.51277 1.42131 3.48304 1.56538 3.4844C1.70945 3.48576 1.85182 3.51817 1.9842 3.57975C2.11657 3.64133 2.2363 3.73084 2.33638 3.84307L4.63877 6.33524L10.0095 0.519V0.517825Z" fill="white"/>
<path fill-rule="evenodd" clip-rule="evenodd" d="M10.0095 0.517825C10.2133 0.297504 10.4895 0.173852 10.7774 0.174073C11.0653 0.174293 11.3414 0.298367 11.5448 0.519C11.7483 0.739633 11.8625 1.03875 11.8623 1.35055C11.862 1.66236 11.7475 1.9613 11.5437 2.18162L5.4102 8.82388L5.40586 8.82858C5.30534 8.93807 5.18581 9.02497 5.05416 9.08426C4.92252 9.14355 4.78134 9.17407 4.63877 9.17407C4.49619 9.17407 4.35501 9.14355 4.22337 9.08426C4.09172 9.02497 3.9722 8.93807 3.87167 8.82858L3.86733 8.82388L0.802187 5.50451C0.698558 5.39612 0.615899 5.26647 0.559035 5.12312C0.502171 4.97976 0.47224 4.82558 0.470988 4.66956C0.469736 4.51355 0.497189 4.35882 0.551744 4.21442C0.606299 4.07002 0.686864 3.93883 0.788738 3.8285C0.890612 3.71818 1.01175 3.63093 1.1451 3.57185C1.27844 3.51277 1.42131 3.48304 1.56538 3.4844C1.70945 3.48576 1.85182 3.51817 1.9842 3.57975C2.11657 3.64133 2.2363 3.73084 2.33638 3.84307L4.63877 6.33524L10.0095 0.519V0.517825Z" fill="#E3AE56"/>
</g>
</svg>
