<svg width="266" height="296" viewBox="0 0 266 296" fill="none" xmlns="http://www.w3.org/2000/svg">
<path d="M165.118 150.338H9.88232" stroke="#C4A36D" stroke-width="2"/>
<path d="M84.0588 90.3123L165.118 150.339L219.412 172.947" stroke="#C4A36D" stroke-width="2"/>
<path d="M139.118 102.785L164.353 150.338L258.412 9.23608" stroke="#C4A36D" stroke-width="2"/>
<path d="M181.176 31.8442L164.353 150.339L226.294 124.613" stroke="#C4A36D" stroke-width="2"/>
<path d="M179.647 112.919L164.353 150.339L227.059 286.763" stroke="#C4A36D" stroke-width="2"/>
<path d="M126.118 172.166L164.353 150.338L152.118 206.467" stroke="#C4A36D" stroke-width="2"/>
<path d="M112.353 222.838L164.353 150.338L171.235 274.29" stroke="#C4A36D" stroke-width="2"/>
<path d="M5.82353 155.237C8.50555 155.237 10.6471 153.026 10.6471 150.339C10.6471 147.652 8.50555 145.441 5.82353 145.441C3.14151 145.441 1 147.652 1 150.339C1 153.026 3.14151 155.237 5.82353 155.237Z" stroke="#C4A36D" stroke-width="2"/>
<path d="M80.7647 92.8707C83.4467 92.8707 85.5882 90.6596 85.5882 87.9728C85.5882 85.286 83.4467 83.075 80.7647 83.075C78.0827 83.075 75.9412 85.286 75.9412 87.9728C75.9412 90.6596 78.0827 92.8707 80.7647 92.8707Z" stroke="#C4A36D" stroke-width="2"/>
<path d="M137.353 104.344C140.035 104.344 142.176 102.133 142.176 99.4462C142.176 96.7594 140.035 94.5483 137.353 94.5483C134.671 94.5483 132.529 96.7594 132.529 99.4462C132.529 102.133 134.671 104.344 137.353 104.344Z" stroke="#C4A36D" stroke-width="2"/>
<path d="M181.177 113.699C183.859 113.699 186 111.488 186 108.801C186 106.114 183.859 103.903 181.177 103.903C178.495 103.903 176.353 106.114 176.353 108.801C176.353 111.488 178.495 113.699 181.177 113.699Z" stroke="#C4A36D" stroke-width="2"/>
<path d="M230.588 128.731C233.27 128.731 235.412 126.52 235.412 123.834C235.412 121.147 233.27 118.936 230.588 118.936C227.906 118.936 225.765 121.147 225.765 123.834C225.765 126.52 227.906 128.731 230.588 128.731Z" stroke="#C4A36D" stroke-width="2"/>
<path d="M223.471 180.623C226.153 180.623 228.294 178.412 228.294 175.725C228.294 173.039 226.153 170.828 223.471 170.828C220.789 170.828 218.647 173.039 218.647 175.725C218.647 178.412 220.789 180.623 223.471 180.623Z" stroke="#C4A36D" stroke-width="2"/>
<path d="M151.117 215.485C153.799 215.485 155.941 213.274 155.941 210.587C155.941 207.9 153.799 205.689 151.117 205.689C148.435 205.689 146.294 207.9 146.294 210.587C146.294 213.274 148.435 215.485 151.117 215.485Z" stroke="#C4A36D" stroke-width="2"/>
<path d="M171.471 283.528C174.153 283.528 176.294 281.317 176.294 278.63C176.294 275.943 174.153 273.732 171.471 273.732C168.789 273.732 166.647 275.943 166.647 278.63C166.647 281.317 168.789 283.528 171.471 283.528Z" stroke="#C4A36D" stroke-width="2"/>
<path d="M228.588 295C231.27 295 233.412 292.789 233.412 290.102C233.412 287.415 231.27 285.204 228.588 285.204C225.906 285.204 223.765 287.415 223.765 290.102C223.765 292.789 225.906 295 228.588 295Z" stroke="#C4A36D" stroke-width="2"/>
<path d="M109.824 231.075C112.506 231.075 114.647 228.864 114.647 226.178C114.647 223.491 112.506 221.28 109.824 221.28C107.142 221.28 105 223.491 105 226.178C105 228.864 107.142 231.075 109.824 231.075Z" stroke="#C4A36D" stroke-width="2"/>
<path d="M123.059 179.623C125.741 179.623 127.882 177.412 127.882 174.725C127.882 172.039 125.741 169.828 123.059 169.828C120.377 169.828 118.235 172.039 118.235 174.725C118.235 177.412 120.377 179.623 123.059 179.623Z" stroke="#C4A36D" stroke-width="2"/>
<path d="M182.177 32.6241C184.859 32.6241 187 30.413 187 27.7262C187 25.0394 184.859 22.8284 182.177 22.8284C179.495 22.8284 177.353 25.0394 177.353 27.7262C177.353 30.413 179.495 32.6241 182.177 32.6241Z" stroke="#C4A36D" stroke-width="2"/>
<path d="M260.176 10.7957C262.858 10.7957 265 8.58462 265 5.89785C265 3.21108 262.858 1 260.176 1C257.494 1 255.353 3.21108 255.353 5.89785C255.353 8.58462 257.494 10.7957 260.176 10.7957Z" stroke="#C4A36D" stroke-width="2"/>
</svg>
