<svg width="191" height="80" viewBox="0 0 191 80" fill="none" xmlns="http://www.w3.org/2000/svg">
<path d="M39.6588 41.0469H2.64111" stroke="black"/>
<path d="M20.3293 27.0059L39.6588 41.047L52.6058 46.3353" stroke="black"/>
<path d="M33.4587 29.9234L39.4764 41.0469L61.9058 8.04102" stroke="black"/>
<path d="M43.4883 13.3293L39.4766 41.047L54.2471 35.0293" stroke="black"/>
<path d="M43.1236 32.2939L39.4766 41.0469L54.4295 72.9587" stroke="black"/>
<path d="M30.3589 46.1528L39.4765 41.0469L36.5589 54.1763" stroke="black"/>
<path d="M27.0764 58.0057L39.4764 41.0469L41.1176 70.041" stroke="black"/>
<circle cx="1.91176" cy="41.047" r="1.41176" stroke="black"/>
<circle cx="19.7824" cy="26.4586" r="1.41176" stroke="black"/>
<circle cx="33.2765" cy="29.3764" r="1.41176" stroke="black"/>
<circle cx="43.4882" cy="31.5646" r="1.41176" stroke="black"/>
<circle cx="55.7941" cy="34.8471" r="1.41176" stroke="black"/>
<circle cx="53.3354" cy="46.5175" r="1.41176" stroke="black"/>
<circle cx="36.5587" cy="54.9059" r="1.41176" stroke="black"/>
<circle cx="40.9352" cy="71.5883" r="1.41176" stroke="black"/>
<circle cx="54.7941" cy="74.5058" r="1.41176" stroke="black"/>
<circle cx="26.7118" cy="58.5529" r="1.41176" stroke="black"/>
<circle cx="29.6293" cy="46.5175" r="1.41176" stroke="black"/>
<circle cx="43.4882" cy="11.6" r="1.41176" stroke="black"/>
<circle cx="63.0883" cy="6.49404" r="1.41176" stroke="black"/>
<path d="M80.7067 51V31.3636H88.4538C89.9432 31.3636 91.212 31.6481 92.2603 32.217C93.3086 32.7795 94.1076 33.5625 94.6573 34.5661C95.2134 35.5632 95.4915 36.7138 95.4915 38.0178C95.4915 39.3217 95.2102 40.4723 94.6477 41.4695C94.0852 42.4666 93.2702 43.2433 92.2028 43.7994C91.1417 44.3555 89.8569 44.6335 88.3484 44.6335H83.4105V41.3065H87.6772C88.4762 41.3065 89.1346 41.169 89.6523 40.8942C90.1765 40.6129 90.5664 40.2262 90.8221 39.734C91.0842 39.2354 91.2152 38.6634 91.2152 38.0178C91.2152 37.3658 91.0842 36.7969 90.8221 36.3111C90.5664 35.8189 90.1765 35.4386 89.6523 35.1701C89.1282 34.8952 88.4634 34.7578 87.658 34.7578H84.8583V51H80.7067ZM104.528 51.2876C103.039 51.2876 101.751 50.9712 100.664 50.3384C99.584 49.6992 98.7498 48.8107 98.1618 47.6729C97.5737 46.5288 97.2797 45.2024 97.2797 43.6939C97.2797 42.1726 97.5737 40.843 98.1618 39.7053C98.7498 38.5611 99.584 37.6726 100.664 37.0398C101.751 36.4006 103.039 36.081 104.528 36.081C106.018 36.081 107.302 36.4006 108.383 37.0398C109.469 37.6726 110.307 38.5611 110.895 39.7053C111.483 40.843 111.777 42.1726 111.777 43.6939C111.777 45.2024 111.483 46.5288 110.895 47.6729C110.307 48.8107 109.469 49.6992 108.383 50.3384C107.302 50.9712 106.018 51.2876 104.528 51.2876ZM104.547 48.1236C105.225 48.1236 105.791 47.9318 106.244 47.5483C106.698 47.1584 107.04 46.6278 107.27 45.9567C107.507 45.2855 107.625 44.5217 107.625 43.6651C107.625 42.8086 107.507 42.0447 107.27 41.3736C107.04 40.7024 106.698 40.1719 106.244 39.782C105.791 39.392 105.225 39.1971 104.547 39.1971C103.863 39.1971 103.288 39.392 102.822 39.782C102.361 40.1719 102.013 40.7024 101.776 41.3736C101.546 42.0447 101.431 42.8086 101.431 43.6651C101.431 44.5217 101.546 45.2855 101.776 45.9567C102.013 46.6278 102.361 47.1584 102.822 47.5483C103.288 47.9318 103.863 48.1236 104.547 48.1236ZM114.433 51V36.2727H118.517V51H114.433ZM116.485 34.3743C115.877 34.3743 115.356 34.1729 114.922 33.7702C114.493 33.3611 114.279 32.8722 114.279 32.3033C114.279 31.7408 114.493 31.2582 114.922 30.8555C115.356 30.4464 115.877 30.2418 116.485 30.2418C117.092 30.2418 117.61 30.4464 118.038 30.8555C118.472 31.2582 118.69 31.7408 118.69 32.3033C118.69 32.8722 118.472 33.3611 118.038 33.7702C117.61 34.1729 117.092 34.3743 116.485 34.3743ZM125.874 42.4858V51H121.789V36.2727H125.682V38.8711H125.854C126.18 38.0146 126.727 37.337 127.494 36.8384C128.261 36.3335 129.191 36.081 130.284 36.081C131.307 36.081 132.199 36.3047 132.959 36.7521C133.72 37.1996 134.311 37.8388 134.733 38.6697C135.155 39.4943 135.366 40.4787 135.366 41.6229V51H131.281V42.3516C131.288 41.4503 131.058 40.7472 130.591 40.2422C130.124 39.7308 129.482 39.4751 128.664 39.4751C128.114 39.4751 127.628 39.5934 127.206 39.8299C126.791 40.0664 126.465 40.4116 126.228 40.8654C125.998 41.3129 125.88 41.853 125.874 42.4858ZM146.419 36.2727V39.3409H137.55V36.2727H146.419ZM139.563 32.7443H143.648V46.4744C143.648 46.8516 143.705 47.1456 143.82 47.3565C143.935 47.5611 144.095 47.7049 144.3 47.788C144.51 47.8711 144.753 47.9126 145.028 47.9126C145.22 47.9126 145.412 47.8967 145.604 47.8647C145.795 47.8263 145.942 47.7976 146.045 47.7784L146.687 50.8178C146.482 50.8817 146.195 50.9553 145.824 51.0384C145.453 51.1278 145.003 51.1822 144.472 51.2013C143.488 51.2397 142.625 51.1087 141.883 50.8082C141.148 50.5078 140.576 50.0412 140.167 49.4084C139.758 48.7756 139.557 47.9766 139.563 47.0114V32.7443ZM155.405 51V31.3636H163.267C164.712 31.3636 165.917 31.5778 166.882 32.006C167.847 32.4343 168.573 33.0288 169.058 33.7894C169.544 34.5437 169.787 35.413 169.787 36.3974C169.787 37.1644 169.634 37.8388 169.327 38.4205C169.02 38.9957 168.598 39.4687 168.061 39.8395C167.531 40.2038 166.923 40.4627 166.239 40.6161V40.8079C166.987 40.8398 167.687 41.0508 168.339 41.4407C168.998 41.8306 169.531 42.3771 169.94 43.0803C170.35 43.777 170.554 44.608 170.554 45.5732C170.554 46.6151 170.295 47.5451 169.777 48.3633C169.266 49.1751 168.509 49.8175 167.505 50.2905C166.502 50.7635 165.265 51 163.794 51H155.405ZM159.557 47.6058H162.941C164.098 47.6058 164.942 47.3853 165.472 46.9442C166.003 46.4968 166.268 45.9023 166.268 45.1609C166.268 44.6175 166.137 44.1381 165.875 43.7227C165.613 43.3072 165.239 42.9812 164.753 42.7447C164.274 42.5082 163.702 42.3899 163.037 42.3899H159.557V47.6058ZM159.557 39.5806H162.634C163.203 39.5806 163.708 39.4815 164.149 39.2834C164.597 39.0788 164.948 38.7912 165.204 38.4205C165.466 38.0497 165.597 37.6055 165.597 37.0877C165.597 36.3782 165.345 35.8061 164.84 35.3714C164.341 34.9368 163.631 34.7195 162.711 34.7195H159.557V39.5806Z" fill="black"/>
<circle cx="116.5" cy="32.5" r="2.5" fill="#14423E"/>
</svg>
