<svg width="65" height="71" viewBox="0 0 65 71" fill="none" xmlns="http://www.w3.org/2000/svg">
<path d="M39.6588 36.4646H2.64111" stroke="black"/>
<path d="M20.3293 22.4236L39.6588 36.4648L52.6058 41.753" stroke="black"/>
<path d="M33.4587 25.3411L39.4764 36.4646L61.9058 3.45874" stroke="black"/>
<path d="M43.4883 8.74707L39.4766 36.4647L54.2471 30.4471" stroke="black"/>
<path d="M43.1236 27.7117L39.4766 36.4646L54.4295 68.3764" stroke="black"/>
<path d="M30.3589 41.5705L39.4765 36.4646L36.5589 49.594" stroke="black"/>
<path d="M27.0764 53.4234L39.4764 36.4646L41.1176 65.4587" stroke="black"/>
<circle cx="1.91176" cy="36.4647" r="1.41176" stroke="black"/>
<circle cx="19.7824" cy="21.8764" r="1.41176" stroke="black"/>
<circle cx="33.2765" cy="24.7941" r="1.41176" stroke="black"/>
<circle cx="43.4882" cy="26.9823" r="1.41176" stroke="black"/>
<circle cx="54.7941" cy="30.2648" r="1.41176" stroke="black"/>
<circle cx="53.3354" cy="41.9352" r="1.41176" stroke="black"/>
<circle cx="36.5587" cy="50.3236" r="1.41176" stroke="black"/>
<circle cx="40.9352" cy="66.006" r="1.41176" stroke="black"/>
<circle cx="54.7941" cy="68.9235" r="1.41176" stroke="black"/>
<circle cx="26.7118" cy="53.9706" r="1.41176" stroke="black"/>
<circle cx="29.6293" cy="41.9352" r="1.41176" stroke="black"/>
<circle cx="43.4882" cy="7.01772" r="1.41176" stroke="black"/>
<circle cx="63.0883" cy="1.91176" r="1.41176" stroke="black"/>
</svg>
