<svg width="201" height="201" viewBox="0 0 201 201" fill="none" xmlns="http://www.w3.org/2000/svg">
<circle cx="100.052" cy="100.379" r="100" fill="white"/>
<g filter="url(#filter0_i_1486_2)">
<path d="M100.461 104.241H13.8577" stroke="black" stroke-width="4"/>
<path d="M55.2396 72.9951L100.461 104.241L130.751 116.009" stroke="black" stroke-width="4"/>
<path d="M85.9563 79.4881L100.035 104.241L152.509 30.7937" stroke="black" stroke-width="4"/>
<path d="M109.42 42.5618L100.035 104.241L134.591 90.8504" stroke="black" stroke-width="4"/>
<path d="M108.567 84.7639L100.035 104.242L135.018 175.254" stroke="black" stroke-width="4"/>
<path d="M78.7042 115.603L100.035 104.241L93.2092 133.457" stroke="black" stroke-width="4"/>
<path d="M71.0247 141.979L100.035 104.241L103.874 168.761" stroke="black" stroke-width="4"/>
<path d="M12.1516 108.27C14.3387 108.27 16.2847 106.56 16.2847 104.241C16.2847 101.923 14.3387 100.212 12.1516 100.212C9.96447 100.212 8.01849 101.923 8.01849 104.241C8.01849 106.56 9.96447 108.27 12.1516 108.27Z" stroke="black" stroke-width="4"/>
<path d="M53.9602 75.8064C56.1474 75.8064 58.0933 74.0958 58.0933 71.7775C58.0933 69.4592 56.1474 67.7485 53.9602 67.7485C51.7731 67.7485 49.8271 69.4592 49.8271 71.7775C49.8271 74.0958 51.7731 75.8064 53.9602 75.8064Z" stroke="black" stroke-width="4"/>
<path d="M83.8846 80.752C86.0717 80.752 88.0176 79.0413 88.0176 76.723C88.0176 74.4047 86.0717 72.6941 83.8846 72.6941C81.6974 72.6941 79.7515 74.4047 79.7515 76.723C79.7515 79.0413 81.6974 80.752 83.8846 80.752Z" stroke="black" stroke-width="4"/>
<path d="M109.42 87.1692C111.607 87.1692 113.553 85.4585 113.553 83.1403C113.553 80.822 111.607 79.1113 109.42 79.1113C107.233 79.1113 105.287 80.822 105.287 83.1403C105.287 85.4585 107.233 87.1692 109.42 87.1692Z" stroke="black" stroke-width="4"/>
<path d="M137.516 94.4663C139.703 94.4663 141.649 92.7557 141.649 90.4374C141.649 88.1191 139.703 86.4084 137.516 86.4084C135.329 86.4084 133.383 88.1191 133.383 90.4374C133.383 92.7557 135.329 94.4663 137.516 94.4663Z" stroke="black" stroke-width="4"/>
<path d="M132.458 120.443C134.645 120.443 136.591 118.733 136.591 116.414C136.591 114.096 134.645 112.385 132.458 112.385C130.271 112.385 128.325 114.096 128.325 116.414C128.325 118.733 130.271 120.443 132.458 120.443Z" stroke="black" stroke-width="4"/>
<path d="M93.2088 139.11C95.3959 139.11 97.3419 137.399 97.3419 135.081C97.3419 132.763 95.3959 131.052 93.2088 131.052C91.0217 131.052 89.0757 132.763 89.0757 135.081C89.0757 137.399 91.0217 139.11 93.2088 139.11Z" stroke="black" stroke-width="4"/>
<path d="M103.448 174.008C105.635 174.008 107.581 172.297 107.581 169.979C107.581 167.661 105.635 165.95 103.448 165.95C101.261 165.95 99.3146 167.661 99.3146 169.979C99.3146 172.297 101.261 174.008 103.448 174.008Z" stroke="black" stroke-width="4"/>
<path d="M135.871 180.5C138.058 180.5 140.004 178.789 140.004 176.471C140.004 174.153 138.058 172.442 135.871 172.442C133.683 172.442 131.737 174.153 131.737 176.471C131.737 178.789 133.683 180.5 135.871 180.5Z" stroke="black" stroke-width="4"/>
<path d="M70.1715 147.226C72.3587 147.226 74.3046 145.516 74.3046 143.197C74.3046 140.879 72.3587 139.168 70.1715 139.168C67.9844 139.168 66.0385 140.879 66.0385 143.197C66.0385 145.516 67.9844 147.226 70.1715 147.226Z" stroke="black" stroke-width="4"/>
<path d="M76.9973 120.443C79.1845 120.443 81.1304 118.733 81.1304 116.414C81.1304 114.096 79.1845 112.385 76.9973 112.385C74.8102 112.385 72.8643 114.096 72.8643 116.414C72.8643 118.733 74.8102 120.443 76.9973 120.443Z" stroke="black" stroke-width="4"/>
<path d="M109.42 44.968C111.607 44.968 113.553 43.2574 113.553 40.9391C113.553 38.6208 111.607 36.9102 109.42 36.9102C107.233 36.9102 105.287 38.6208 105.287 40.9391C105.287 43.2574 107.233 44.968 109.42 44.968Z" stroke="black" stroke-width="4"/>
<path d="M154.581 32.0579C156.768 32.0579 158.714 30.3472 158.714 28.0289C158.714 25.7106 156.768 24 154.581 24C152.394 24 150.448 25.7106 150.448 28.0289C150.448 30.3472 152.394 32.0579 154.581 32.0579Z" stroke="black" stroke-width="4"/>
</g>
<defs>
<filter id="filter0_i_1486_2" x="6.01849" y="22" width="154.696" height="161.5" filterUnits="userSpaceOnUse" color-interpolation-filters="sRGB">
<feFlood flood-opacity="0" result="BackgroundImageFix"/>
<feBlend mode="normal" in="SourceGraphic" in2="BackgroundImageFix" result="shape"/>
<feColorMatrix in="SourceAlpha" type="matrix" values="0 0 0 0 0 0 0 0 0 0 0 0 0 0 0 0 0 0 127 0" result="hardAlpha"/>
<feOffset dy="1"/>
<feGaussianBlur stdDeviation="2.5"/>
<feComposite in2="hardAlpha" operator="arithmetic" k2="-1" k3="1"/>
<feColorMatrix type="matrix" values="0 0 0 0 0 0 0 0 0 0 0 0 0 0 0 0 0 0 1 0"/>
<feBlend mode="normal" in2="shape" result="effect1_innerShadow_1486_2"/>
</filter>
</defs>
</svg>
