<svg width="201" height="201" viewBox="0 0 201 201" fill="none" xmlns="http://www.w3.org/2000/svg">
<circle cx="100.836" cy="100.6" r="100" fill="white" fill-opacity="0.14"/>
<path d="M101.245 104.461H14.6416" stroke="#F5F5F5" stroke-width="2"/>
<path d="M56.0234 73.2158L101.245 104.461L131.535 116.229" stroke="#F5F5F5" stroke-width="2"/>
<path d="M86.7401 79.7086L100.818 104.462L153.292 31.0142" stroke="#F5F5F5" stroke-width="2"/>
<path d="M110.204 42.7822L100.819 104.462L135.375 91.0708" stroke="#F5F5F5" stroke-width="2"/>
<path d="M109.351 84.9844L100.819 104.462L135.801 175.475" stroke="#F5F5F5" stroke-width="2"/>
<path d="M79.4882 115.823L100.819 104.461L93.9932 133.678" stroke="#F5F5F5" stroke-width="2"/>
<path d="M71.8085 142.2L100.818 104.461L104.658 168.982" stroke="#F5F5F5" stroke-width="2"/>
<path d="M12.9355 107.491C14.618 107.491 16.0685 106.181 16.0685 104.462C16.0685 102.743 14.618 101.433 12.9355 101.433C11.2529 101.433 9.80237 102.743 9.80237 104.462C9.80237 106.181 11.2529 107.491 12.9355 107.491Z" stroke="#F5F5F5" stroke-width="2"/>
<path d="M54.744 75.0271C56.4266 75.0271 57.8771 73.7176 57.8771 71.9982C57.8771 70.2788 56.4266 68.9692 54.744 68.9692C53.0615 68.9692 51.611 70.2788 51.611 71.9982C51.611 73.7176 53.0615 75.0271 54.744 75.0271Z" stroke="#F5F5F5" stroke-width="2"/>
<path d="M84.6685 79.9724C86.3511 79.9724 87.8016 78.6629 87.8016 76.9435C87.8016 75.2241 86.3511 73.9146 84.6685 73.9146C82.9859 73.9146 81.5354 75.2241 81.5354 76.9435C81.5354 78.6629 82.9859 79.9724 84.6685 79.9724Z" stroke="#F5F5F5" stroke-width="2"/>
<path d="M110.204 86.3899C111.887 86.3899 113.337 85.0804 113.337 83.361C113.337 81.6415 111.887 80.332 110.204 80.332C108.522 80.332 107.071 81.6415 107.071 83.361C107.071 85.0804 108.522 86.3899 110.204 86.3899Z" stroke="#F5F5F5" stroke-width="2"/>
<path d="M138.3 93.6873C139.983 93.6873 141.433 92.3777 141.433 90.6583C141.433 88.9389 139.983 87.6294 138.3 87.6294C136.617 87.6294 135.167 88.9389 135.167 90.6583C135.167 92.3777 136.617 93.6873 138.3 93.6873Z" stroke="#F5F5F5" stroke-width="2"/>
<path d="M133.242 119.664C134.925 119.664 136.375 118.354 136.375 116.635C136.375 114.915 134.925 113.606 133.242 113.606C131.559 113.606 130.109 114.915 130.109 116.635C130.109 118.354 131.559 119.664 133.242 119.664Z" stroke="#F5F5F5" stroke-width="2"/>
<path d="M93.9926 138.331C95.6752 138.331 97.1257 137.021 97.1257 135.302C97.1257 133.582 95.6752 132.273 93.9926 132.273C92.31 132.273 90.8595 133.582 90.8595 135.302C90.8595 137.021 92.31 138.331 93.9926 138.331Z" stroke="#F5F5F5" stroke-width="2"/>
<path d="M104.232 173.229C105.914 173.229 107.365 171.919 107.365 170.2C107.365 168.48 105.914 167.171 104.232 167.171C102.549 167.171 101.099 168.48 101.099 170.2C101.099 171.919 102.549 173.229 104.232 173.229Z" stroke="#F5F5F5" stroke-width="2"/>
<path d="M136.654 179.72C138.337 179.72 139.788 178.411 139.788 176.692C139.788 174.972 138.337 173.663 136.654 173.663C134.972 173.663 133.521 174.972 133.521 176.692C133.521 178.411 134.972 179.72 136.654 179.72Z" stroke="#F5F5F5" stroke-width="2"/>
<path d="M70.9555 146.447C72.6381 146.447 74.0886 145.138 74.0886 143.418C74.0886 141.699 72.6381 140.389 70.9555 140.389C69.2729 140.389 67.8224 141.699 67.8224 143.418C67.8224 145.138 69.2729 146.447 70.9555 146.447Z" stroke="#F5F5F5" stroke-width="2"/>
<path d="M77.7813 119.664C79.4639 119.664 80.9144 118.354 80.9144 116.635C80.9144 114.915 79.4639 113.606 77.7813 113.606C76.0987 113.606 74.6482 114.915 74.6482 116.635C74.6482 118.354 76.0987 119.664 77.7813 119.664Z" stroke="#F5F5F5" stroke-width="2"/>
<path d="M110.204 44.1887C111.887 44.1887 113.337 42.8792 113.337 41.1598C113.337 39.4404 111.887 38.1309 110.204 38.1309C108.522 38.1309 107.071 39.4404 107.071 41.1598C107.071 42.8792 108.522 44.1887 110.204 44.1887Z" stroke="#F5F5F5" stroke-width="2"/>
<path d="M155.365 31.2786C157.048 31.2786 158.498 29.9691 158.498 28.2496C158.498 26.5302 157.048 25.2207 155.365 25.2207C153.682 25.2207 152.232 26.5302 152.232 28.2496C152.232 29.9691 153.682 31.2786 155.365 31.2786Z" stroke="#F5F5F5" stroke-width="2"/>
</svg>
